#!OML:ASF X:\für Bonn\!DataBase\2005_08_12_Daniel\c3d\Daniel.ASF
:FULLY-SPECIFIED
:DEGREES
180
root 12.6379 2.45891 1.42964 -686.33 -77.2335 -117.523
lowerback 67.6723 -8.49939 13.7087
upperback 14.3741 -5.52382 -2.71093
thorax -5.11364 -4.0743 -6.06328
lowerneck -4.94224 1.36148 -18.5717
upperneck 7.92108 3.33749 -7.48061
head 3.3757 0.515322 0.815589
rclavicle -1.39149e-014 -3.18055e-014
rhumerus -58.2534 -22.8321 -65.8343
rradius 3.91119
rwrist 71.4542
rhand -55.4787 -322.38
rfingers 7.12502
rthumb -27.8379 -350.338
lclavicle -1.39149e-014 -3.18055e-014
lhumerus -411.733 31.5352 -291.573
lradius 18.3857
lwrist -17.249
lhand -72.8653 285.225
lfingers 7.12502
lthumb -44.2884 309
rfemur 124.876 -144.238 170.889
rtibia 127.305
rfoot 54.3094 48.4183
rtoes 2.35327
lfemur -62.9707 32.091 -17.9545
ltibia 120.318
lfoot 17.4933 -4.42127
ltoes 8.65034
181
root 12.6445 2.38858 1.46118 -684.659 -77.6587 -119.348
lowerback 67.4521 -8.79517 13.9876
upperback 14.4219 -5.72306 -2.77621
thorax -5.08023 -4.15033 -6.16557
lowerneck -5.09418 1.47123 -18.1589
upperneck 7.66114 3.47407 -7.59123
head 3.30545 0.615606 0.716219
rclavicle 1.98785e-016 5.24792e-014
rhumerus -58.3791 -22.2327 -65.933
rradius 3.58985
rwrist 70.925
rhand -58.7895 -317.366
rfingers 7.12502
rthumb -30.9987 -344.768
lclavicle 1.98785e-016 5.24792e-014
lhumerus -411.247 29.8676 -289.404
lradius 19.1247
lwrist -14.7383
lhand -72.868 288.539
lfingers 7.12502
lthumb -44.2908 312.312
rfemur 123.844 -144.513 171.32
rtibia 127.24
rfoot 55.4551 47.4831
rtoes 3.39924
lfemur -63.1915 32.3594 -18.3764
ltibia 120.316
lfoot 17.9571 -4.0223
ltoes 9.83896
182
root 12.6546 2.32404 1.48837 -683.01 -78.0173 -121.136
lowerback 67.224 -9.08538 14.291
upperback 14.4606 -5.89439 -2.82018
thorax -5.04994 -4.21274 -6.26507
lowerneck -5.17153 1.56328 -17.7351
upperneck 7.38372 3.56503 -7.63975
head 3.21742 0.701195 0.633945
rclavicle 3.39922e-014 6.99722e-014
rhumerus -58.6245 -21.6412 -65.9528
rradius 3.50693
rwrist 70.4589
rhand -61.7139 -311.187
rfingers 7.12502
rthumb -33.7819 -338.019
lclavicle 3.39922e-014 6.99722e-014
lhumerus -410.933 28.2916 -287.492
lradius 19.9689
lwrist -12.446
lhand -72.8063 292.103
lfingers 7.12502
lthumb -44.2333 315.898
rfemur 122.908 -144.728 171.712
rtibia 127.201
rfoot 56.3371 46.7833
rtoes 4.26124
lfemur -63.3975 32.574 -18.7453
ltibia 120.277
lfoot 18.3964 -3.54899
ltoes 10.9401
183
root 12.6673 2.26263 1.5119 -681.44 -78.3541 -122.811
lowerback 67.0011 -9.36529 14.5904
upperback 14.4892 -6.05311 -2.86509
thorax -5.03012 -4.26782 -6.36862
lowerneck -5.28531 1.64655 -17.2639
upperneck 7.15016 3.65507 -7.64829
head 3.15306 0.785092 0.558491
rclavicle -1.14301e-014 5.56597e-015
rhumerus -58.918 -21.0162 -65.904
rradius 3.60154
rwrist 70.087
rhand -63.9981 -304.039
rfingers 7.12502
rthumb -35.9491 -330.368
lclavicle -1.14301e-014 5.56597e-015
lhumerus -410.796 26.9902 -285.952
lradius 20.8105
lwrist -10.6544
lhand -72.7424 296.003
lfingers 7.12502
lthumb -44.1738 319.82
rfemur 121.998 -144.878 172.081
rtibia 127.19
rfoot 56.9736 46.2617
rtoes 4.70853
lfemur -63.608 32.6858 -19.1321
ltibia 120.2
lfoot 18.7056 -2.92446
ltoes 11.4342
184
root 12.6837 2.20478 1.53265 -679.845 -78.6476 -124.461
lowerback 66.7275 -9.64049 14.9362
upperback 14.5301 -6.18131 -2.91394
thorax -4.99255 -4.30238 -6.511
lowerneck -5.31453 1.70017 -16.7427
upperneck 6.86054 3.67732 -7.61469
head 3.05653 0.847407 0.485355
rclavicle -1.74931e-014 2.46493e-014
rhumerus -59.2211 -20.478 -65.8392
rradius 3.8245
rwrist 69.7712
rhand -65.6797 -296.645
rfingers 7.12502
rthumb -37.5403 -322.568
lclavicle -1.74931e-014 2.46493e-014
lhumerus -410.675 25.9825 -284.782
lradius 21.3787
lwrist -9.3594
lhand -72.6589 299.529
lfingers 7.12502
lthumb -44.0958 323.376
rfemur 121.07 -145.004 172.539
rtibia 127.193
rfoot 57.2498 45.9137
rtoes 4.66759
lfemur -63.8748 32.7355 -19.5035
ltibia 120.103
lfoot 18.9893 -2.28171
ltoes 11.9583
185
root 12.7025 2.15035 1.5498 -678.35 -78.9147 -126.028
lowerback 66.539 -9.88794 15.2343
upperback 14.5368 -6.29358 -2.94102
thorax -4.98792 -4.33627 -6.61167
lowerneck -5.33474 1.75364 -16.1609
upperneck 6.57964 3.69611 -7.59378
head 2.96344 0.907728 0.397663
rclavicle 1.51076e-014 2.46493e-014
rhumerus -59.4753 -19.8871 -65.7492
rradius 4.06626
rwrist 69.4951
rhand -66.7732 -289.652
rfingers 7.12502
rthumb -38.5729 -315.293
lclavicle 1.51076e-014 2.46493e-014
lhumerus -410.562 25.0267 -283.641
lradius 21.8666
lwrist -8.09544
lhand -72.582 302.147
lfingers 7.12502
lthumb -44.0242 326.021
rfemur 120.24 -145.155 173.002
rtibia 127.19
rfoot 57.2136 45.6291
rtoes 4.31679
lfemur -64.0857 32.7112 -19.8081
ltibia 119.973
lfoot 19.2829 -1.65375
ltoes 12.218
186
root 12.7236 2.0998 1.56256 -676.885 -79.1911 -127.538
lowerback 66.3865 -10.0669 15.4484
upperback 14.5144 -6.37146 -2.95006
thorax -5.01475 -4.35966 -6.67137
lowerneck -5.3612 1.81422 -15.5047
upperneck 6.34115 3.72689 -7.55544
head 2.88754 0.972444 0.304345
rclavicle 1.8487e-014 1.90833e-014
rhumerus -59.6873 -19.2758 -65.6604
rradius 4.31062
rwrist 69.1908
rhand -67.3869 -283.783
rfingers 7.12502
rthumb -39.1516 -309.26
lclavicle 1.8487e-014 1.90833e-014
lhumerus -410.351 23.736 -282.202
lradius 22.3233
lwrist -6.42434
lhand -72.5674 304.013
lfingers 7.12502
lthumb -44.0105 327.891
rfemur 119.397 -145.415 173.517
rtibia 127.197
rfoot 56.838 45.3259
rtoes 3.64467
lfemur -64.3012 32.6975 -20.1068
ltibia 119.826
lfoot 19.5338 -1.04234
ltoes 12.1112
187
root 12.7481 2.05302 1.57156 -675.558 -79.415 -128.931
lowerback 66.2733 -10.2229 15.6427
upperback 14.4952 -6.43043 -2.92493
thorax -5.02921 -4.38025 -6.69214
lowerneck -5.38432 1.85114 -14.8078
upperneck 6.09828 3.72347 -7.50914
head 2.8123 1.02147 0.205778
rclavicle 1.2921e-014 3.18055e-014
rhumerus -59.8175 -18.6701 -65.5686
rradius 4.53082
rwrist 68.8684
rhand -67.746 -279.269
rfingers 7.12502
rthumb -39.49 -304.647
lclavicle 1.2921e-014 3.18055e-014
lhumerus -410.134 22.357 -280.693
lradius 22.8103
lwrist -4.69226
lhand -72.5798 305.911
lfingers 7.12502
lthumb -44.0221 329.786
rfemur 118.678 -145.753 174.079
rtibia 127.172
rfoot 56.0291 44.9518
rtoes 2.8024
lfemur -64.4447 32.5978 -20.33
ltibia 119.644
lfoot 19.8265 -0.484433
ltoes 12.0287
